G04 MADE WITH FRITZING*
G04 WWW.FRITZING.ORG*
G04 DOUBLE SIDED*
G04 HOLES PLATED*
G04 CONTOUR ON CENTER OF CONTOUR VECTOR*
%ASAXBY*%
%FSLAX23Y23*%
%MOIN*%
%OFA0B0*%
%SFA1.0B1.0*%
%ADD10C,0.085000*%
%ADD11C,0.093307*%
%ADD12C,0.099213*%
%ADD13C,0.088000*%
%ADD14C,0.080555*%
%ADD15C,0.080583*%
%ADD16C,0.128110*%
%ADD17R,0.085000X0.085000*%
%ADD18R,0.093307X0.093307*%
%ADD19R,0.099213X0.099213*%
%ADD20R,0.080570X0.080542*%
%ADD21R,0.088000X0.088000*%
%ADD22C,0.030000*%
%LNMASK0*%
G90*
G70*
G54D10*
X1719Y2002D03*
X1619Y2002D03*
X369Y652D03*
X369Y552D03*
X369Y1452D03*
X369Y1352D03*
X369Y2252D03*
X369Y2152D03*
X2469Y1252D03*
X2369Y1252D03*
X2469Y1802D03*
X2369Y1802D03*
X2471Y2354D03*
X2371Y2354D03*
G54D11*
X969Y852D03*
X969Y352D03*
X869Y852D03*
X869Y352D03*
X769Y852D03*
X769Y352D03*
X669Y852D03*
X669Y352D03*
X569Y852D03*
X569Y352D03*
X469Y852D03*
X469Y352D03*
X369Y852D03*
X369Y352D03*
X269Y852D03*
X269Y352D03*
X969Y1652D03*
X969Y1152D03*
X869Y1652D03*
X869Y1152D03*
X769Y1652D03*
X769Y1152D03*
X669Y1652D03*
X669Y1152D03*
X569Y1652D03*
X569Y1152D03*
X469Y1652D03*
X469Y1152D03*
X369Y1652D03*
X369Y1152D03*
X269Y1652D03*
X269Y1152D03*
X969Y2452D03*
X969Y1952D03*
X869Y2452D03*
X869Y1952D03*
X769Y2452D03*
X769Y1952D03*
X669Y2452D03*
X669Y1952D03*
X569Y2452D03*
X569Y1952D03*
X469Y2452D03*
X469Y1952D03*
X369Y2452D03*
X369Y1952D03*
X269Y2452D03*
X269Y1952D03*
G54D12*
X2169Y452D03*
X2369Y452D03*
G54D13*
X2219Y2552D03*
X2119Y2552D03*
G54D14*
X1269Y2302D03*
X1269Y2202D03*
X1269Y2102D03*
X1269Y2002D03*
X1269Y1902D03*
X1269Y1802D03*
X1269Y1702D03*
X1269Y1602D03*
X1269Y1502D03*
G54D15*
X1269Y1402D03*
X1269Y1302D03*
X1269Y1202D03*
G54D14*
X1269Y1102D03*
X1269Y1002D03*
G54D15*
X1269Y902D03*
X1269Y802D03*
X1269Y702D03*
G54D14*
X1869Y2302D03*
X1869Y2202D03*
X1869Y2102D03*
X1869Y2002D03*
X1869Y1902D03*
X1869Y1802D03*
X1869Y1502D03*
G54D15*
X1869Y1402D03*
G54D14*
X1869Y1602D03*
X1869Y1702D03*
G54D15*
X1869Y1302D03*
X1869Y1202D03*
G54D14*
X1869Y1102D03*
X1869Y1002D03*
G54D15*
X1869Y902D03*
X1869Y802D03*
X1869Y702D03*
G54D13*
X2471Y1454D03*
X2371Y1454D03*
X2271Y1454D03*
X2471Y904D03*
X2371Y904D03*
X2271Y904D03*
X2471Y1054D03*
X2371Y1054D03*
X2271Y1054D03*
X2471Y1604D03*
X2371Y1604D03*
X2271Y1604D03*
X2471Y2004D03*
X2371Y2004D03*
X2271Y2004D03*
X2471Y2154D03*
X2371Y2154D03*
X2271Y2154D03*
G54D16*
X2619Y2602D03*
X119Y2602D03*
X119Y152D03*
X2619Y152D03*
G54D13*
X769Y2602D03*
X669Y2602D03*
X569Y2602D03*
X469Y2602D03*
X769Y1802D03*
X669Y1802D03*
X569Y1802D03*
X469Y1802D03*
X769Y1002D03*
X669Y1002D03*
X569Y1002D03*
X469Y1002D03*
G54D17*
X1719Y2002D03*
X369Y652D03*
X369Y1452D03*
X369Y2252D03*
X2469Y1252D03*
X2469Y1802D03*
X2471Y2354D03*
G54D18*
X969Y1652D03*
X969Y2452D03*
G54D19*
X2169Y452D03*
G54D20*
X1269Y2302D03*
G54D21*
X2471Y1454D03*
X2471Y904D03*
X2471Y1054D03*
X2471Y1604D03*
X2471Y2004D03*
X2471Y2154D03*
G54D22*
G36*
X1001Y821D02*
X938Y821D01*
X938Y884D01*
X1001Y884D01*
X1001Y821D01*
G37*
D02*
G04 End of Mask0*
M02*