; NON-PLATED HOLES START AT T1
; THROUGH (PLATED) HOLES START AT T100
M48
INCH
T1C0.118110
T100C0.043307
T101C0.035000
T102C0.038000
T103C0.037222
T104C0.037250
T105C0.049213
%
T1
X001193Y026024
X026193Y001524
X026193Y026024
X001193Y001524
T100
X008693Y019524
X008693Y008524
X007693Y019524
X002693Y003524
X008693Y003524
X009693Y008524
X006693Y024524
X004693Y019524
X007693Y011524
X009693Y024524
X006693Y016524
X009693Y011524
X008693Y016524
X005693Y003524
X002693Y024524
X003693Y008524
X007693Y008524
X003693Y003524
X009693Y016524
X007693Y024524
X006693Y011524
X004693Y003524
X004693Y011524
X003693Y019524
X002693Y019524
X009693Y003524
X005693Y016524
X004693Y024524
X003693Y024524
X004693Y008524
X006693Y019524
X003693Y016524
X005693Y008524
X007693Y016524
X008693Y011524
X005693Y019524
X005693Y024524
X007693Y003524
X002693Y011524
X003693Y011524
X008693Y024524
X006693Y008524
X004693Y016524
X005693Y011524
X006693Y003524
X009693Y019524
X002693Y008524
X002693Y016524
T101
X023693Y018024
X003693Y014524
X003693Y006524
X017193Y020024
X024693Y018024
X023710Y023539
X023693Y012524
X003693Y021524
X003693Y013524
X024710Y023539
X003693Y005524
X003693Y022524
X016193Y020024
X024693Y012524
T102
X023710Y009039
X006693Y010024
X004693Y026024
X006693Y026024
X007693Y026024
X022193Y025524
X005693Y018024
X024710Y014539
X022710Y020039
X022710Y021539
X024710Y021539
X007693Y010024
X024710Y020039
X024710Y010539
X023710Y021539
X023710Y016039
X021193Y025524
X004693Y018024
X005693Y026024
X024710Y016039
X005693Y010024
X023710Y020039
X024710Y009039
X007693Y018024
X022710Y010539
X004693Y010024
X023710Y014539
X023710Y010539
X022710Y016039
X022710Y014539
X006693Y018024
X022710Y009039
T103
X012693Y017024
X018693Y011024
X018693Y023024
X012693Y021024
X018693Y017024
X018693Y016024
X012693Y019024
X012693Y018024
X018693Y019024
X012693Y016024
X012693Y011024
X012693Y020024
X018693Y021024
X012693Y010024
X018693Y010024
X018693Y020024
X012693Y023024
X018693Y018024
X012693Y015024
X012693Y022024
X018693Y022024
X018693Y015024
T104
X018693Y008024
X012693Y008024
X018693Y012024
X018693Y013024
X012693Y009024
X012693Y012024
X018693Y007024
X018693Y014024
X018693Y009024
X012693Y014024
X012693Y013024
X012693Y007024
T105
X023693Y004524
X021693Y004524
T00
M30
