G04 MADE WITH FRITZING*
G04 WWW.FRITZING.ORG*
G04 DOUBLE SIDED*
G04 HOLES PLATED*
G04 CONTOUR ON CENTER OF CONTOUR VECTOR*
%ASAXBY*%
%FSLAX23Y23*%
%MOIN*%
%OFA0B0*%
%SFA1.0B1.0*%
%ADD10R,2.755910X2.755910X2.739910X2.739910*%
%ADD11C,0.008000*%
%ADD12R,0.001000X0.001000*%
%LNSILK0*%
G90*
G70*
G54D11*
X4Y2752D02*
X2752Y2752D01*
X2752Y4D01*
X4Y4D01*
X4Y2752D01*
D02*
G54D12*
X1492Y1936D02*
X1531Y1936D01*
X1492Y1935D02*
X1533Y1935D01*
X1492Y1934D02*
X1535Y1934D01*
X1492Y1933D02*
X1536Y1933D01*
X1492Y1932D02*
X1537Y1932D01*
X1492Y1931D02*
X1537Y1931D01*
X1492Y1930D02*
X1538Y1930D01*
X1526Y1929D02*
X1538Y1929D01*
X1529Y1928D02*
X1539Y1928D01*
X1531Y1927D02*
X1539Y1927D01*
X1532Y1926D02*
X1539Y1926D01*
X1533Y1925D02*
X1539Y1925D01*
X1533Y1924D02*
X1539Y1924D01*
X1533Y1923D02*
X1539Y1923D01*
X1533Y1922D02*
X1539Y1922D01*
X1534Y1921D02*
X1539Y1921D01*
X1534Y1920D02*
X1539Y1920D01*
X1533Y1919D02*
X1539Y1919D01*
X1533Y1918D02*
X1539Y1918D01*
X1533Y1917D02*
X1538Y1917D01*
X1533Y1916D02*
X1538Y1916D01*
X1532Y1915D02*
X1537Y1915D01*
X1531Y1914D02*
X1537Y1914D01*
X1530Y1913D02*
X1536Y1913D01*
X1529Y1912D02*
X1535Y1912D01*
X1528Y1911D02*
X1535Y1911D01*
X1525Y1910D02*
X1533Y1910D01*
X1492Y1909D02*
X1532Y1909D01*
X1492Y1908D02*
X1533Y1908D01*
X1492Y1907D02*
X1534Y1907D01*
X1492Y1906D02*
X1535Y1906D01*
X1492Y1905D02*
X1536Y1905D01*
X1492Y1904D02*
X1537Y1904D01*
X1492Y1903D02*
X1538Y1903D01*
X1492Y1902D02*
X1538Y1902D01*
X1529Y1901D02*
X1538Y1901D01*
X1530Y1900D02*
X1539Y1900D01*
X1532Y1899D02*
X1539Y1899D01*
X1532Y1898D02*
X1539Y1898D01*
X1533Y1897D02*
X1539Y1897D01*
X1533Y1896D02*
X1539Y1896D01*
X1533Y1895D02*
X1539Y1895D01*
X1534Y1894D02*
X1539Y1894D01*
X1534Y1893D02*
X1539Y1893D01*
X1534Y1892D02*
X1539Y1892D01*
X1533Y1891D02*
X1539Y1891D01*
X1533Y1890D02*
X1538Y1890D01*
X1533Y1889D02*
X1538Y1889D01*
X1532Y1888D02*
X1537Y1888D01*
X1532Y1887D02*
X1537Y1887D01*
X1531Y1886D02*
X1536Y1886D01*
X1530Y1885D02*
X1535Y1885D01*
X1528Y1884D02*
X1534Y1884D01*
X1527Y1883D02*
X1533Y1883D01*
X1522Y1882D02*
X1532Y1882D01*
X1492Y1881D02*
X1538Y1881D01*
X1492Y1880D02*
X1538Y1880D01*
X1492Y1879D02*
X1538Y1879D01*
X1492Y1878D02*
X1538Y1878D01*
X1492Y1877D02*
X1538Y1877D01*
X1492Y1876D02*
X1538Y1876D01*
X1492Y1875D02*
X1538Y1875D01*
X1507Y1864D02*
X1521Y1864D01*
X1503Y1863D02*
X1525Y1863D01*
X1501Y1862D02*
X1528Y1862D01*
X1499Y1861D02*
X1530Y1861D01*
X1498Y1860D02*
X1531Y1860D01*
X1496Y1859D02*
X1533Y1859D01*
X1495Y1858D02*
X1534Y1858D01*
X1494Y1857D02*
X1534Y1857D01*
X1493Y1856D02*
X1506Y1856D01*
X1522Y1856D02*
X1535Y1856D01*
X1493Y1855D02*
X1503Y1855D01*
X1525Y1855D02*
X1536Y1855D01*
X1492Y1854D02*
X1502Y1854D01*
X1527Y1854D02*
X1537Y1854D01*
X1492Y1853D02*
X1500Y1853D01*
X1529Y1853D02*
X1537Y1853D01*
X1491Y1852D02*
X1499Y1852D01*
X1530Y1852D02*
X1538Y1852D01*
X1491Y1851D02*
X1498Y1851D01*
X1531Y1851D02*
X1538Y1851D01*
X1490Y1850D02*
X1497Y1850D01*
X1531Y1850D02*
X1538Y1850D01*
X1490Y1849D02*
X1497Y1849D01*
X1532Y1849D02*
X1539Y1849D01*
X1490Y1848D02*
X1496Y1848D01*
X1532Y1848D02*
X1539Y1848D01*
X1490Y1847D02*
X1496Y1847D01*
X1533Y1847D02*
X1539Y1847D01*
X1490Y1846D02*
X1496Y1846D01*
X1533Y1846D02*
X1539Y1846D01*
X1490Y1845D02*
X1496Y1845D01*
X1533Y1845D02*
X1539Y1845D01*
X1490Y1844D02*
X1496Y1844D01*
X1533Y1844D02*
X1539Y1844D01*
X1490Y1843D02*
X1495Y1843D01*
X1533Y1843D02*
X1539Y1843D01*
X1490Y1842D02*
X1496Y1842D01*
X1533Y1842D02*
X1539Y1842D01*
X1490Y1841D02*
X1496Y1841D01*
X1533Y1841D02*
X1539Y1841D01*
X1490Y1840D02*
X1496Y1840D01*
X1533Y1840D02*
X1539Y1840D01*
X1490Y1839D02*
X1496Y1839D01*
X1532Y1839D02*
X1539Y1839D01*
X1490Y1838D02*
X1497Y1838D01*
X1532Y1838D02*
X1539Y1838D01*
X1490Y1837D02*
X1497Y1837D01*
X1532Y1837D02*
X1538Y1837D01*
X1491Y1836D02*
X1498Y1836D01*
X1531Y1836D02*
X1538Y1836D01*
X1491Y1835D02*
X1499Y1835D01*
X1530Y1835D02*
X1538Y1835D01*
X1491Y1834D02*
X1500Y1834D01*
X1529Y1834D02*
X1537Y1834D01*
X1492Y1833D02*
X1501Y1833D01*
X1528Y1833D02*
X1537Y1833D01*
X1493Y1832D02*
X1503Y1832D01*
X1526Y1832D02*
X1536Y1832D01*
X1493Y1831D02*
X1506Y1831D01*
X1523Y1831D02*
X1536Y1831D01*
X1494Y1830D02*
X1511Y1830D01*
X1517Y1830D02*
X1535Y1830D01*
X1495Y1829D02*
X1534Y1829D01*
X1496Y1828D02*
X1533Y1828D01*
X1497Y1827D02*
X1531Y1827D01*
X1499Y1826D02*
X1530Y1826D01*
X1500Y1825D02*
X1528Y1825D01*
X1503Y1824D02*
X1526Y1824D01*
X1506Y1823D02*
X1522Y1823D01*
X1504Y1816D02*
X1507Y1816D01*
X1523Y1816D02*
X1523Y1816D01*
X1500Y1815D02*
X1507Y1815D01*
X1523Y1815D02*
X1528Y1815D01*
X1498Y1814D02*
X1507Y1814D01*
X1523Y1814D02*
X1530Y1814D01*
X1497Y1813D02*
X1507Y1813D01*
X1523Y1813D02*
X1532Y1813D01*
X1496Y1812D02*
X1507Y1812D01*
X1523Y1812D02*
X1533Y1812D01*
X1494Y1811D02*
X1507Y1811D01*
X1523Y1811D02*
X1534Y1811D01*
X1494Y1810D02*
X1507Y1810D01*
X1523Y1810D02*
X1535Y1810D01*
X1493Y1809D02*
X1506Y1809D01*
X1523Y1809D02*
X1536Y1809D01*
X1492Y1808D02*
X1503Y1808D01*
X1525Y1808D02*
X1537Y1808D01*
X1492Y1807D02*
X1501Y1807D01*
X1528Y1807D02*
X1537Y1807D01*
X1491Y1806D02*
X1499Y1806D01*
X1529Y1806D02*
X1538Y1806D01*
X1491Y1805D02*
X1498Y1805D01*
X1531Y1805D02*
X1538Y1805D01*
X1490Y1804D02*
X1497Y1804D01*
X1531Y1804D02*
X1538Y1804D01*
X1490Y1803D02*
X1497Y1803D01*
X1532Y1803D02*
X1539Y1803D01*
X1490Y1802D02*
X1496Y1802D01*
X1532Y1802D02*
X1539Y1802D01*
X1490Y1801D02*
X1496Y1801D01*
X1533Y1801D02*
X1539Y1801D01*
X1490Y1800D02*
X1496Y1800D01*
X1533Y1800D02*
X1539Y1800D01*
X1490Y1799D02*
X1496Y1799D01*
X1533Y1799D02*
X1539Y1799D01*
X1490Y1798D02*
X1495Y1798D01*
X1533Y1798D02*
X1539Y1798D01*
X1490Y1797D02*
X1496Y1797D01*
X1533Y1797D02*
X1539Y1797D01*
X1490Y1796D02*
X1496Y1796D01*
X1533Y1796D02*
X1539Y1796D01*
X1490Y1795D02*
X1496Y1795D01*
X1533Y1795D02*
X1539Y1795D01*
X1490Y1794D02*
X1496Y1794D01*
X1533Y1794D02*
X1539Y1794D01*
X1490Y1793D02*
X1496Y1793D01*
X1532Y1793D02*
X1539Y1793D01*
X1490Y1792D02*
X1497Y1792D01*
X1532Y1792D02*
X1539Y1792D01*
X1490Y1791D02*
X1497Y1791D01*
X1531Y1791D02*
X1538Y1791D01*
X1491Y1790D02*
X1498Y1790D01*
X1531Y1790D02*
X1538Y1790D01*
X1491Y1789D02*
X1499Y1789D01*
X1530Y1789D02*
X1537Y1789D01*
X1492Y1788D02*
X1500Y1788D01*
X1528Y1788D02*
X1537Y1788D01*
X1492Y1787D02*
X1502Y1787D01*
X1527Y1787D02*
X1536Y1787D01*
X1493Y1786D02*
X1504Y1786D01*
X1525Y1786D02*
X1536Y1786D01*
X1493Y1785D02*
X1507Y1785D01*
X1521Y1785D02*
X1535Y1785D01*
X1494Y1784D02*
X1534Y1784D01*
X1495Y1783D02*
X1533Y1783D01*
X1496Y1782D02*
X1532Y1782D01*
X1498Y1781D02*
X1530Y1781D01*
X1499Y1780D02*
X1529Y1780D01*
X1501Y1779D02*
X1527Y1779D01*
X1504Y1778D02*
X1524Y1778D01*
X1508Y1777D02*
X1520Y1777D01*
X1492Y1765D02*
X1500Y1765D01*
X1492Y1764D02*
X1500Y1764D01*
X1492Y1763D02*
X1500Y1763D01*
X1492Y1762D02*
X1500Y1762D01*
X1492Y1761D02*
X1500Y1761D01*
X1492Y1760D02*
X1500Y1760D01*
X1492Y1759D02*
X1500Y1759D01*
X1492Y1758D02*
X1500Y1758D01*
X1492Y1757D02*
X1500Y1757D01*
X1532Y1747D02*
X1539Y1747D01*
X1532Y1746D02*
X1539Y1746D01*
X1532Y1745D02*
X1539Y1745D01*
X1532Y1744D02*
X1539Y1744D01*
X1532Y1743D02*
X1539Y1743D01*
X1532Y1742D02*
X1539Y1742D01*
X1531Y1741D02*
X1539Y1741D01*
X1531Y1740D02*
X1538Y1740D01*
X1530Y1739D02*
X1538Y1739D01*
X1530Y1738D02*
X1537Y1738D01*
X1529Y1737D02*
X1536Y1737D01*
X1529Y1736D02*
X1535Y1736D01*
X1527Y1735D02*
X1534Y1735D01*
X1526Y1734D02*
X1533Y1734D01*
X1522Y1733D02*
X1531Y1733D01*
X1492Y1732D02*
X1530Y1732D01*
X1492Y1731D02*
X1538Y1731D01*
X1492Y1730D02*
X1538Y1730D01*
X1492Y1729D02*
X1538Y1729D01*
X1492Y1728D02*
X1538Y1728D01*
X1492Y1727D02*
X1538Y1727D01*
X1492Y1726D02*
X1538Y1726D01*
X1492Y1725D02*
X1538Y1725D01*
X1513Y1715D02*
X1521Y1715D01*
X1504Y1714D02*
X1505Y1714D01*
X1513Y1714D02*
X1526Y1714D01*
X1501Y1713D02*
X1505Y1713D01*
X1513Y1713D02*
X1528Y1713D01*
X1499Y1712D02*
X1505Y1712D01*
X1513Y1712D02*
X1530Y1712D01*
X1497Y1711D02*
X1505Y1711D01*
X1513Y1711D02*
X1532Y1711D01*
X1496Y1710D02*
X1505Y1710D01*
X1513Y1710D02*
X1533Y1710D01*
X1495Y1709D02*
X1505Y1709D01*
X1513Y1709D02*
X1534Y1709D01*
X1494Y1708D02*
X1505Y1708D01*
X1513Y1708D02*
X1535Y1708D01*
X1493Y1707D02*
X1505Y1707D01*
X1513Y1707D02*
X1518Y1707D01*
X1523Y1707D02*
X1535Y1707D01*
X1493Y1706D02*
X1502Y1706D01*
X1513Y1706D02*
X1518Y1706D01*
X1526Y1706D02*
X1536Y1706D01*
X1492Y1705D02*
X1501Y1705D01*
X1513Y1705D02*
X1518Y1705D01*
X1528Y1705D02*
X1537Y1705D01*
X1492Y1704D02*
X1499Y1704D01*
X1513Y1704D02*
X1518Y1704D01*
X1529Y1704D02*
X1537Y1704D01*
X1491Y1703D02*
X1498Y1703D01*
X1513Y1703D02*
X1518Y1703D01*
X1530Y1703D02*
X1538Y1703D01*
X1491Y1702D02*
X1498Y1702D01*
X1513Y1702D02*
X1518Y1702D01*
X1531Y1702D02*
X1538Y1702D01*
X1490Y1701D02*
X1497Y1701D01*
X1513Y1701D02*
X1518Y1701D01*
X1531Y1701D02*
X1538Y1701D01*
X1490Y1700D02*
X1496Y1700D01*
X1513Y1700D02*
X1518Y1700D01*
X1532Y1700D02*
X1539Y1700D01*
X1490Y1699D02*
X1496Y1699D01*
X1513Y1699D02*
X1518Y1699D01*
X1532Y1699D02*
X1539Y1699D01*
X1490Y1698D02*
X1496Y1698D01*
X1513Y1698D02*
X1518Y1698D01*
X1533Y1698D02*
X1539Y1698D01*
X1490Y1697D02*
X1496Y1697D01*
X1513Y1697D02*
X1518Y1697D01*
X1533Y1697D02*
X1539Y1697D01*
X1490Y1696D02*
X1496Y1696D01*
X1513Y1696D02*
X1518Y1696D01*
X1533Y1696D02*
X1539Y1696D01*
X1490Y1695D02*
X1495Y1695D01*
X1513Y1695D02*
X1518Y1695D01*
X1533Y1695D02*
X1539Y1695D01*
X1490Y1694D02*
X1496Y1694D01*
X1513Y1694D02*
X1518Y1694D01*
X1533Y1694D02*
X1539Y1694D01*
X1490Y1693D02*
X1496Y1693D01*
X1513Y1693D02*
X1518Y1693D01*
X1533Y1693D02*
X1539Y1693D01*
X1490Y1692D02*
X1496Y1692D01*
X1513Y1692D02*
X1518Y1692D01*
X1533Y1692D02*
X1539Y1692D01*
X1490Y1691D02*
X1496Y1691D01*
X1513Y1691D02*
X1518Y1691D01*
X1533Y1691D02*
X1539Y1691D01*
X1490Y1690D02*
X1496Y1690D01*
X1513Y1690D02*
X1518Y1690D01*
X1532Y1690D02*
X1539Y1690D01*
X1490Y1689D02*
X1497Y1689D01*
X1513Y1689D02*
X1518Y1689D01*
X1532Y1689D02*
X1539Y1689D01*
X1490Y1688D02*
X1497Y1688D01*
X1513Y1688D02*
X1518Y1688D01*
X1532Y1688D02*
X1538Y1688D01*
X1491Y1687D02*
X1498Y1687D01*
X1513Y1687D02*
X1518Y1687D01*
X1531Y1687D02*
X1538Y1687D01*
X1491Y1686D02*
X1499Y1686D01*
X1513Y1686D02*
X1518Y1686D01*
X1530Y1686D02*
X1538Y1686D01*
X1491Y1685D02*
X1499Y1685D01*
X1513Y1685D02*
X1518Y1685D01*
X1529Y1685D02*
X1537Y1685D01*
X1492Y1684D02*
X1501Y1684D01*
X1513Y1684D02*
X1518Y1684D01*
X1528Y1684D02*
X1536Y1684D01*
X1493Y1683D02*
X1502Y1683D01*
X1513Y1683D02*
X1518Y1683D01*
X1526Y1683D02*
X1536Y1683D01*
X1493Y1682D02*
X1504Y1682D01*
X1513Y1682D02*
X1518Y1682D01*
X1524Y1682D02*
X1535Y1682D01*
X1494Y1681D02*
X1508Y1681D01*
X1512Y1681D02*
X1534Y1681D01*
X1495Y1680D02*
X1533Y1680D01*
X1496Y1679D02*
X1532Y1679D01*
X1497Y1678D02*
X1531Y1678D01*
X1499Y1677D02*
X1530Y1677D01*
X1500Y1676D02*
X1528Y1676D01*
X1503Y1675D02*
X1525Y1675D01*
X1506Y1674D02*
X1522Y1674D01*
X1513Y1673D02*
X1515Y1673D01*
X1492Y1663D02*
X1531Y1663D01*
X1492Y1662D02*
X1533Y1662D01*
X1492Y1661D02*
X1535Y1661D01*
X1492Y1660D02*
X1536Y1660D01*
X1492Y1659D02*
X1536Y1659D01*
X1492Y1658D02*
X1537Y1658D01*
X1492Y1657D02*
X1538Y1657D01*
X1527Y1656D02*
X1538Y1656D01*
X1530Y1655D02*
X1538Y1655D01*
X1531Y1654D02*
X1539Y1654D01*
X1532Y1653D02*
X1539Y1653D01*
X1532Y1652D02*
X1539Y1652D01*
X1533Y1651D02*
X1539Y1651D01*
X1533Y1650D02*
X1539Y1650D01*
X1533Y1649D02*
X1539Y1649D01*
X1534Y1648D02*
X1539Y1648D01*
X1534Y1647D02*
X1539Y1647D01*
X1534Y1646D02*
X1539Y1646D01*
X1533Y1645D02*
X1539Y1645D01*
X1533Y1644D02*
X1539Y1644D01*
X1533Y1643D02*
X1538Y1643D01*
X1533Y1642D02*
X1538Y1642D01*
X1532Y1641D02*
X1538Y1641D01*
X1532Y1640D02*
X1537Y1640D01*
X1531Y1639D02*
X1536Y1639D01*
X1530Y1638D02*
X1536Y1638D01*
X1529Y1637D02*
X1535Y1637D01*
X1527Y1636D02*
X1534Y1636D01*
X1525Y1635D02*
X1533Y1635D01*
X1520Y1634D02*
X1532Y1634D01*
X1492Y1633D02*
X1556Y1633D01*
X1492Y1632D02*
X1556Y1632D01*
X1492Y1631D02*
X1556Y1631D01*
X1492Y1630D02*
X1556Y1630D01*
X1492Y1629D02*
X1556Y1629D01*
X1492Y1628D02*
X1556Y1628D01*
X1492Y1627D02*
X1556Y1627D01*
X1503Y1617D02*
X1507Y1617D01*
X1523Y1617D02*
X1525Y1617D01*
X1500Y1616D02*
X1507Y1616D01*
X1523Y1616D02*
X1529Y1616D01*
X1498Y1615D02*
X1507Y1615D01*
X1523Y1615D02*
X1531Y1615D01*
X1496Y1614D02*
X1507Y1614D01*
X1523Y1614D02*
X1532Y1614D01*
X1495Y1613D02*
X1507Y1613D01*
X1523Y1613D02*
X1534Y1613D01*
X1494Y1612D02*
X1507Y1612D01*
X1523Y1612D02*
X1535Y1612D01*
X1493Y1611D02*
X1507Y1611D01*
X1523Y1611D02*
X1535Y1611D01*
X1493Y1610D02*
X1505Y1610D01*
X1523Y1610D02*
X1536Y1610D01*
X1492Y1609D02*
X1502Y1609D01*
X1526Y1609D02*
X1537Y1609D01*
X1492Y1608D02*
X1500Y1608D01*
X1528Y1608D02*
X1537Y1608D01*
X1491Y1607D02*
X1499Y1607D01*
X1530Y1607D02*
X1538Y1607D01*
X1491Y1606D02*
X1498Y1606D01*
X1531Y1606D02*
X1538Y1606D01*
X1490Y1605D02*
X1497Y1605D01*
X1532Y1605D02*
X1538Y1605D01*
X1490Y1604D02*
X1497Y1604D01*
X1532Y1604D02*
X1539Y1604D01*
X1490Y1603D02*
X1496Y1603D01*
X1533Y1603D02*
X1539Y1603D01*
X1490Y1602D02*
X1496Y1602D01*
X1533Y1602D02*
X1539Y1602D01*
X1490Y1601D02*
X1496Y1601D01*
X1533Y1601D02*
X1539Y1601D01*
X1490Y1600D02*
X1496Y1600D01*
X1533Y1600D02*
X1539Y1600D01*
X1490Y1599D02*
X1495Y1599D01*
X1533Y1599D02*
X1539Y1599D01*
X1490Y1598D02*
X1496Y1598D01*
X1533Y1598D02*
X1539Y1598D01*
X1490Y1597D02*
X1496Y1597D01*
X1533Y1597D02*
X1539Y1597D01*
X1490Y1596D02*
X1496Y1596D01*
X1533Y1596D02*
X1539Y1596D01*
X1490Y1595D02*
X1496Y1595D01*
X1533Y1595D02*
X1539Y1595D01*
X1490Y1594D02*
X1496Y1594D01*
X1532Y1594D02*
X1539Y1594D01*
X1490Y1593D02*
X1497Y1593D01*
X1532Y1593D02*
X1538Y1593D01*
X1490Y1592D02*
X1498Y1592D01*
X1531Y1592D02*
X1538Y1592D01*
X1491Y1591D02*
X1498Y1591D01*
X1530Y1591D02*
X1538Y1591D01*
X1491Y1590D02*
X1499Y1590D01*
X1529Y1590D02*
X1537Y1590D01*
X1492Y1589D02*
X1500Y1589D01*
X1528Y1589D02*
X1537Y1589D01*
X1492Y1588D02*
X1502Y1588D01*
X1526Y1588D02*
X1536Y1588D01*
X1493Y1587D02*
X1505Y1587D01*
X1524Y1587D02*
X1535Y1587D01*
X1494Y1586D02*
X1509Y1586D01*
X1519Y1586D02*
X1535Y1586D01*
X1495Y1585D02*
X1534Y1585D01*
X1496Y1584D02*
X1533Y1584D01*
X1497Y1583D02*
X1531Y1583D01*
X1498Y1582D02*
X1530Y1582D01*
X1500Y1581D02*
X1528Y1581D01*
X1502Y1580D02*
X1526Y1580D01*
X1505Y1579D02*
X1523Y1579D01*
X1511Y1578D02*
X1517Y1578D01*
X1491Y1573D02*
X1495Y1573D01*
X1490Y1572D02*
X1495Y1572D01*
X1490Y1571D02*
X1495Y1571D01*
X1490Y1570D02*
X1495Y1570D01*
X1490Y1569D02*
X1495Y1569D01*
X1490Y1568D02*
X1496Y1568D01*
X1490Y1567D02*
X1530Y1567D01*
X1490Y1566D02*
X1532Y1566D01*
X1490Y1565D02*
X1534Y1565D01*
X1490Y1564D02*
X1535Y1564D01*
X1491Y1563D02*
X1536Y1563D01*
X1492Y1562D02*
X1536Y1562D01*
X1493Y1561D02*
X1537Y1561D01*
X1496Y1560D02*
X1537Y1560D01*
X1495Y1559D02*
X1502Y1559D01*
X1515Y1559D02*
X1521Y1559D01*
X1530Y1559D02*
X1538Y1559D01*
X1495Y1558D02*
X1500Y1558D01*
X1514Y1558D02*
X1520Y1558D01*
X1531Y1558D02*
X1538Y1558D01*
X1494Y1557D02*
X1499Y1557D01*
X1514Y1557D02*
X1519Y1557D01*
X1532Y1557D02*
X1538Y1557D01*
X1493Y1556D02*
X1498Y1556D01*
X1514Y1556D02*
X1519Y1556D01*
X1532Y1556D02*
X1539Y1556D01*
X1493Y1555D02*
X1498Y1555D01*
X1514Y1555D02*
X1519Y1555D01*
X1532Y1555D02*
X1539Y1555D01*
X1492Y1554D02*
X1497Y1554D01*
X1513Y1554D02*
X1518Y1554D01*
X1533Y1554D02*
X1539Y1554D01*
X1492Y1553D02*
X1497Y1553D01*
X1513Y1553D02*
X1518Y1553D01*
X1533Y1553D02*
X1539Y1553D01*
X1491Y1552D02*
X1496Y1552D01*
X1513Y1552D02*
X1518Y1552D01*
X1533Y1552D02*
X1539Y1552D01*
X1491Y1551D02*
X1496Y1551D01*
X1513Y1551D02*
X1518Y1551D01*
X1533Y1551D02*
X1539Y1551D01*
X1490Y1550D02*
X1496Y1550D01*
X1513Y1550D02*
X1518Y1550D01*
X1533Y1550D02*
X1539Y1550D01*
X1490Y1549D02*
X1495Y1549D01*
X1512Y1549D02*
X1518Y1549D01*
X1533Y1549D02*
X1539Y1549D01*
X1490Y1548D02*
X1495Y1548D01*
X1512Y1548D02*
X1517Y1548D01*
X1533Y1548D02*
X1539Y1548D01*
X1490Y1547D02*
X1495Y1547D01*
X1512Y1547D02*
X1517Y1547D01*
X1533Y1547D02*
X1539Y1547D01*
X1490Y1546D02*
X1495Y1546D01*
X1512Y1546D02*
X1517Y1546D01*
X1533Y1546D02*
X1539Y1546D01*
X1490Y1545D02*
X1495Y1545D01*
X1512Y1545D02*
X1517Y1545D01*
X1533Y1545D02*
X1539Y1545D01*
X1490Y1544D02*
X1495Y1544D01*
X1512Y1544D02*
X1517Y1544D01*
X1532Y1544D02*
X1539Y1544D01*
X1490Y1543D02*
X1495Y1543D01*
X1511Y1543D02*
X1517Y1543D01*
X1532Y1543D02*
X1539Y1543D01*
X1490Y1542D02*
X1496Y1542D01*
X1511Y1542D02*
X1516Y1542D01*
X1532Y1542D02*
X1538Y1542D01*
X1490Y1541D02*
X1496Y1541D01*
X1510Y1541D02*
X1516Y1541D01*
X1531Y1541D02*
X1538Y1541D01*
X1490Y1540D02*
X1496Y1540D01*
X1510Y1540D02*
X1516Y1540D01*
X1530Y1540D02*
X1538Y1540D01*
X1490Y1539D02*
X1497Y1539D01*
X1509Y1539D02*
X1516Y1539D01*
X1528Y1539D02*
X1537Y1539D01*
X1490Y1538D02*
X1498Y1538D01*
X1508Y1538D02*
X1515Y1538D01*
X1525Y1538D02*
X1537Y1538D01*
X1491Y1537D02*
X1500Y1537D01*
X1506Y1537D02*
X1515Y1537D01*
X1525Y1537D02*
X1536Y1537D01*
X1491Y1536D02*
X1515Y1536D01*
X1525Y1536D02*
X1536Y1536D01*
X1492Y1535D02*
X1514Y1535D01*
X1525Y1535D02*
X1535Y1535D01*
X1492Y1534D02*
X1514Y1534D01*
X1525Y1534D02*
X1534Y1534D01*
X1493Y1533D02*
X1513Y1533D01*
X1525Y1533D02*
X1532Y1533D01*
X1494Y1532D02*
X1512Y1532D01*
X1525Y1532D02*
X1530Y1532D01*
X1495Y1531D02*
X1511Y1531D01*
X1525Y1531D02*
X1527Y1531D01*
X1497Y1530D02*
X1509Y1530D01*
X1500Y1529D02*
X1506Y1529D01*
X1507Y1521D02*
X1522Y1521D01*
X1504Y1520D02*
X1526Y1520D01*
X1501Y1519D02*
X1528Y1519D01*
X1499Y1518D02*
X1530Y1518D01*
X1498Y1517D02*
X1532Y1517D01*
X1496Y1516D02*
X1533Y1516D01*
X1495Y1515D02*
X1534Y1515D01*
X1494Y1514D02*
X1513Y1514D01*
X1515Y1514D02*
X1535Y1514D01*
X1493Y1513D02*
X1506Y1513D01*
X1522Y1513D02*
X1536Y1513D01*
X1493Y1512D02*
X1504Y1512D01*
X1525Y1512D02*
X1536Y1512D01*
X1492Y1511D02*
X1502Y1511D01*
X1527Y1511D02*
X1537Y1511D01*
X1491Y1510D02*
X1500Y1510D01*
X1528Y1510D02*
X1538Y1510D01*
X1491Y1509D02*
X1499Y1509D01*
X1529Y1509D02*
X1538Y1509D01*
X1491Y1508D02*
X1498Y1508D01*
X1530Y1508D02*
X1538Y1508D01*
X1490Y1507D02*
X1498Y1507D01*
X1531Y1507D02*
X1539Y1507D01*
X1490Y1506D02*
X1497Y1506D01*
X1532Y1506D02*
X1539Y1506D01*
X1490Y1505D02*
X1497Y1505D01*
X1532Y1505D02*
X1539Y1505D01*
X1490Y1504D02*
X1496Y1504D01*
X1533Y1504D02*
X1539Y1504D01*
X1490Y1503D02*
X1496Y1503D01*
X1533Y1503D02*
X1539Y1503D01*
X1490Y1502D02*
X1496Y1502D01*
X1533Y1502D02*
X1539Y1502D01*
X1490Y1501D02*
X1496Y1501D01*
X1533Y1501D02*
X1539Y1501D01*
X1490Y1500D02*
X1496Y1500D01*
X1533Y1500D02*
X1539Y1500D01*
X1490Y1499D02*
X1496Y1499D01*
X1533Y1499D02*
X1539Y1499D01*
X1490Y1498D02*
X1496Y1498D01*
X1533Y1498D02*
X1539Y1498D01*
X1490Y1497D02*
X1496Y1497D01*
X1533Y1497D02*
X1539Y1497D01*
X1490Y1496D02*
X1496Y1496D01*
X1532Y1496D02*
X1538Y1496D01*
X1491Y1495D02*
X1497Y1495D01*
X1532Y1495D02*
X1538Y1495D01*
X1491Y1494D02*
X1497Y1494D01*
X1531Y1494D02*
X1538Y1494D01*
X1491Y1493D02*
X1498Y1493D01*
X1531Y1493D02*
X1537Y1493D01*
X1492Y1492D02*
X1499Y1492D01*
X1530Y1492D02*
X1536Y1492D01*
X1493Y1491D02*
X1500Y1491D01*
X1529Y1491D02*
X1536Y1491D01*
X1493Y1490D02*
X1502Y1490D01*
X1527Y1490D02*
X1535Y1490D01*
X1494Y1489D02*
X1503Y1489D01*
X1525Y1489D02*
X1534Y1489D01*
X1495Y1488D02*
X1506Y1488D01*
X1522Y1488D02*
X1533Y1488D01*
X1497Y1487D02*
X1556Y1487D01*
X1492Y1486D02*
X1556Y1486D01*
X1492Y1485D02*
X1556Y1485D01*
X1492Y1484D02*
X1556Y1484D01*
X1492Y1483D02*
X1556Y1483D01*
X1492Y1482D02*
X1556Y1482D01*
X1492Y1481D02*
X1556Y1481D01*
X1492Y1480D02*
X1556Y1480D01*
X1492Y1470D02*
X1497Y1470D01*
X1492Y1469D02*
X1497Y1469D01*
X1531Y1469D02*
X1538Y1469D01*
X1492Y1468D02*
X1497Y1468D01*
X1530Y1468D02*
X1538Y1468D01*
X1492Y1467D02*
X1497Y1467D01*
X1529Y1467D02*
X1538Y1467D01*
X1492Y1466D02*
X1497Y1466D01*
X1528Y1466D02*
X1538Y1466D01*
X1492Y1465D02*
X1497Y1465D01*
X1527Y1465D02*
X1538Y1465D01*
X1492Y1464D02*
X1497Y1464D01*
X1525Y1464D02*
X1538Y1464D01*
X1492Y1463D02*
X1497Y1463D01*
X1524Y1463D02*
X1538Y1463D01*
X1492Y1462D02*
X1497Y1462D01*
X1523Y1462D02*
X1538Y1462D01*
X1492Y1461D02*
X1497Y1461D01*
X1522Y1461D02*
X1538Y1461D01*
X1492Y1460D02*
X1497Y1460D01*
X1521Y1460D02*
X1538Y1460D01*
X1492Y1459D02*
X1497Y1459D01*
X1519Y1459D02*
X1529Y1459D01*
X1532Y1459D02*
X1538Y1459D01*
X1492Y1458D02*
X1497Y1458D01*
X1518Y1458D02*
X1528Y1458D01*
X1532Y1458D02*
X1538Y1458D01*
X1492Y1457D02*
X1497Y1457D01*
X1517Y1457D02*
X1527Y1457D01*
X1532Y1457D02*
X1538Y1457D01*
X1492Y1456D02*
X1497Y1456D01*
X1516Y1456D02*
X1526Y1456D01*
X1532Y1456D02*
X1538Y1456D01*
X1492Y1455D02*
X1497Y1455D01*
X1515Y1455D02*
X1525Y1455D01*
X1532Y1455D02*
X1538Y1455D01*
X1492Y1454D02*
X1497Y1454D01*
X1513Y1454D02*
X1523Y1454D01*
X1532Y1454D02*
X1538Y1454D01*
X1492Y1453D02*
X1497Y1453D01*
X1512Y1453D02*
X1522Y1453D01*
X1532Y1453D02*
X1538Y1453D01*
X1492Y1452D02*
X1497Y1452D01*
X1511Y1452D02*
X1521Y1452D01*
X1532Y1452D02*
X1538Y1452D01*
X1492Y1451D02*
X1497Y1451D01*
X1510Y1451D02*
X1520Y1451D01*
X1532Y1451D02*
X1538Y1451D01*
X1492Y1450D02*
X1497Y1450D01*
X1508Y1450D02*
X1519Y1450D01*
X1532Y1450D02*
X1538Y1450D01*
X1492Y1449D02*
X1497Y1449D01*
X1507Y1449D02*
X1517Y1449D01*
X1532Y1449D02*
X1538Y1449D01*
X1492Y1448D02*
X1497Y1448D01*
X1506Y1448D02*
X1516Y1448D01*
X1532Y1448D02*
X1538Y1448D01*
X1492Y1447D02*
X1497Y1447D01*
X1505Y1447D02*
X1515Y1447D01*
X1532Y1447D02*
X1538Y1447D01*
X1492Y1446D02*
X1497Y1446D01*
X1504Y1446D02*
X1514Y1446D01*
X1532Y1446D02*
X1538Y1446D01*
X1492Y1445D02*
X1497Y1445D01*
X1502Y1445D02*
X1513Y1445D01*
X1532Y1445D02*
X1538Y1445D01*
X1492Y1444D02*
X1497Y1444D01*
X1501Y1444D02*
X1511Y1444D01*
X1532Y1444D02*
X1538Y1444D01*
X1492Y1443D02*
X1497Y1443D01*
X1500Y1443D02*
X1510Y1443D01*
X1532Y1443D02*
X1538Y1443D01*
X1492Y1442D02*
X1497Y1442D01*
X1499Y1442D02*
X1509Y1442D01*
X1532Y1442D02*
X1538Y1442D01*
X1492Y1441D02*
X1508Y1441D01*
X1532Y1441D02*
X1538Y1441D01*
X1492Y1440D02*
X1506Y1440D01*
X1532Y1440D02*
X1538Y1440D01*
X1492Y1439D02*
X1505Y1439D01*
X1532Y1439D02*
X1538Y1439D01*
X1492Y1438D02*
X1504Y1438D01*
X1532Y1438D02*
X1538Y1438D01*
X1492Y1437D02*
X1503Y1437D01*
X1532Y1437D02*
X1538Y1437D01*
X1492Y1436D02*
X1502Y1436D01*
X1532Y1436D02*
X1538Y1436D01*
X1492Y1435D02*
X1500Y1435D01*
X1532Y1435D02*
X1538Y1435D01*
X1492Y1434D02*
X1499Y1434D01*
X1492Y1433D02*
X1498Y1433D01*
X1532Y1429D02*
X1539Y1429D01*
X1532Y1428D02*
X1539Y1428D01*
X1532Y1427D02*
X1539Y1427D01*
X1532Y1426D02*
X1539Y1426D01*
X1532Y1425D02*
X1539Y1425D01*
X1532Y1424D02*
X1539Y1424D01*
X1531Y1423D02*
X1539Y1423D01*
X1531Y1422D02*
X1538Y1422D01*
X1531Y1421D02*
X1538Y1421D01*
X1530Y1420D02*
X1537Y1420D01*
X1529Y1419D02*
X1536Y1419D01*
X1529Y1418D02*
X1535Y1418D01*
X1527Y1417D02*
X1534Y1417D01*
X1526Y1416D02*
X1533Y1416D01*
X1523Y1415D02*
X1531Y1415D01*
X1492Y1414D02*
X1530Y1414D01*
X1492Y1413D02*
X1538Y1413D01*
X1492Y1412D02*
X1538Y1412D01*
X1492Y1411D02*
X1538Y1411D01*
X1492Y1410D02*
X1538Y1410D01*
X1492Y1409D02*
X1538Y1409D01*
X1492Y1408D02*
X1538Y1408D01*
X1492Y1407D02*
X1538Y1407D01*
X1513Y1397D02*
X1520Y1397D01*
X1504Y1396D02*
X1505Y1396D01*
X1513Y1396D02*
X1525Y1396D01*
X1501Y1395D02*
X1505Y1395D01*
X1513Y1395D02*
X1528Y1395D01*
X1499Y1394D02*
X1505Y1394D01*
X1513Y1394D02*
X1530Y1394D01*
X1497Y1393D02*
X1505Y1393D01*
X1513Y1393D02*
X1531Y1393D01*
X1496Y1392D02*
X1505Y1392D01*
X1513Y1392D02*
X1533Y1392D01*
X1495Y1391D02*
X1505Y1391D01*
X1513Y1391D02*
X1534Y1391D01*
X1494Y1390D02*
X1505Y1390D01*
X1513Y1390D02*
X1534Y1390D01*
X1493Y1389D02*
X1505Y1389D01*
X1513Y1389D02*
X1518Y1389D01*
X1523Y1389D02*
X1535Y1389D01*
X1493Y1388D02*
X1503Y1388D01*
X1513Y1388D02*
X1518Y1388D01*
X1526Y1388D02*
X1536Y1388D01*
X1492Y1387D02*
X1501Y1387D01*
X1513Y1387D02*
X1518Y1387D01*
X1528Y1387D02*
X1537Y1387D01*
X1492Y1386D02*
X1500Y1386D01*
X1513Y1386D02*
X1518Y1386D01*
X1529Y1386D02*
X1537Y1386D01*
X1491Y1385D02*
X1499Y1385D01*
X1513Y1385D02*
X1518Y1385D01*
X1530Y1385D02*
X1538Y1385D01*
X1491Y1384D02*
X1498Y1384D01*
X1513Y1384D02*
X1518Y1384D01*
X1531Y1384D02*
X1538Y1384D01*
X1490Y1383D02*
X1497Y1383D01*
X1513Y1383D02*
X1518Y1383D01*
X1531Y1383D02*
X1538Y1383D01*
X1490Y1382D02*
X1497Y1382D01*
X1513Y1382D02*
X1518Y1382D01*
X1532Y1382D02*
X1539Y1382D01*
X1490Y1381D02*
X1496Y1381D01*
X1513Y1381D02*
X1518Y1381D01*
X1532Y1381D02*
X1539Y1381D01*
X1490Y1380D02*
X1496Y1380D01*
X1513Y1380D02*
X1518Y1380D01*
X1533Y1380D02*
X1539Y1380D01*
X1490Y1379D02*
X1496Y1379D01*
X1513Y1379D02*
X1518Y1379D01*
X1533Y1379D02*
X1539Y1379D01*
X1490Y1378D02*
X1496Y1378D01*
X1513Y1378D02*
X1518Y1378D01*
X1533Y1378D02*
X1539Y1378D01*
X1490Y1377D02*
X1495Y1377D01*
X1513Y1377D02*
X1518Y1377D01*
X1533Y1377D02*
X1539Y1377D01*
X1490Y1376D02*
X1496Y1376D01*
X1513Y1376D02*
X1518Y1376D01*
X1533Y1376D02*
X1539Y1376D01*
X1490Y1375D02*
X1496Y1375D01*
X1513Y1375D02*
X1518Y1375D01*
X1533Y1375D02*
X1539Y1375D01*
X1490Y1374D02*
X1496Y1374D01*
X1513Y1374D02*
X1518Y1374D01*
X1533Y1374D02*
X1539Y1374D01*
X1490Y1373D02*
X1496Y1373D01*
X1513Y1373D02*
X1518Y1373D01*
X1533Y1373D02*
X1539Y1373D01*
X1490Y1372D02*
X1496Y1372D01*
X1513Y1372D02*
X1518Y1372D01*
X1533Y1372D02*
X1539Y1372D01*
X1490Y1371D02*
X1497Y1371D01*
X1513Y1371D02*
X1518Y1371D01*
X1532Y1371D02*
X1539Y1371D01*
X1490Y1370D02*
X1497Y1370D01*
X1513Y1370D02*
X1518Y1370D01*
X1532Y1370D02*
X1538Y1370D01*
X1491Y1369D02*
X1498Y1369D01*
X1513Y1369D02*
X1518Y1369D01*
X1531Y1369D02*
X1538Y1369D01*
X1491Y1368D02*
X1498Y1368D01*
X1513Y1368D02*
X1518Y1368D01*
X1530Y1368D02*
X1538Y1368D01*
X1491Y1367D02*
X1499Y1367D01*
X1513Y1367D02*
X1518Y1367D01*
X1529Y1367D02*
X1537Y1367D01*
X1492Y1366D02*
X1501Y1366D01*
X1513Y1366D02*
X1518Y1366D01*
X1528Y1366D02*
X1536Y1366D01*
X1493Y1365D02*
X1502Y1365D01*
X1513Y1365D02*
X1518Y1365D01*
X1526Y1365D02*
X1536Y1365D01*
X1493Y1364D02*
X1504Y1364D01*
X1513Y1364D02*
X1518Y1364D01*
X1524Y1364D02*
X1535Y1364D01*
X1494Y1363D02*
X1508Y1363D01*
X1513Y1363D02*
X1518Y1363D01*
X1520Y1363D02*
X1534Y1363D01*
X1495Y1362D02*
X1533Y1362D01*
X1496Y1361D02*
X1532Y1361D01*
X1497Y1360D02*
X1531Y1360D01*
X1499Y1359D02*
X1530Y1359D01*
X1500Y1358D02*
X1528Y1358D01*
X1502Y1357D02*
X1526Y1357D01*
X1505Y1356D02*
X1523Y1356D01*
X1512Y1355D02*
X1516Y1355D01*
X1513Y1347D02*
X1515Y1347D01*
X1506Y1346D02*
X1523Y1346D01*
X1503Y1345D02*
X1526Y1345D01*
X1500Y1344D02*
X1528Y1344D01*
X1499Y1343D02*
X1530Y1343D01*
X1497Y1342D02*
X1532Y1342D01*
X1496Y1341D02*
X1533Y1341D01*
X1495Y1340D02*
X1534Y1340D01*
X1494Y1339D02*
X1510Y1339D01*
X1518Y1339D02*
X1535Y1339D01*
X1493Y1338D02*
X1505Y1338D01*
X1523Y1338D02*
X1536Y1338D01*
X1493Y1337D02*
X1503Y1337D01*
X1526Y1337D02*
X1536Y1337D01*
X1492Y1336D02*
X1501Y1336D01*
X1528Y1336D02*
X1537Y1336D01*
X1491Y1335D02*
X1500Y1335D01*
X1529Y1335D02*
X1537Y1335D01*
X1491Y1334D02*
X1499Y1334D01*
X1530Y1334D02*
X1538Y1334D01*
X1491Y1333D02*
X1498Y1333D01*
X1531Y1333D02*
X1538Y1333D01*
X1490Y1332D02*
X1497Y1332D01*
X1532Y1332D02*
X1538Y1332D01*
X1490Y1331D02*
X1497Y1331D01*
X1532Y1331D02*
X1539Y1331D01*
X1490Y1330D02*
X1496Y1330D01*
X1532Y1330D02*
X1539Y1330D01*
X1490Y1329D02*
X1496Y1329D01*
X1533Y1329D02*
X1539Y1329D01*
X1490Y1328D02*
X1496Y1328D01*
X1533Y1328D02*
X1539Y1328D01*
X1490Y1327D02*
X1496Y1327D01*
X1533Y1327D02*
X1539Y1327D01*
X1490Y1326D02*
X1495Y1326D01*
X1533Y1326D02*
X1539Y1326D01*
X1490Y1325D02*
X1496Y1325D01*
X1533Y1325D02*
X1539Y1325D01*
X1490Y1324D02*
X1496Y1324D01*
X1533Y1324D02*
X1539Y1324D01*
X1490Y1323D02*
X1496Y1323D01*
X1533Y1323D02*
X1539Y1323D01*
X1490Y1322D02*
X1496Y1322D01*
X1533Y1322D02*
X1539Y1322D01*
X1490Y1321D02*
X1496Y1321D01*
X1532Y1321D02*
X1539Y1321D01*
X1490Y1320D02*
X1497Y1320D01*
X1532Y1320D02*
X1539Y1320D01*
X1490Y1319D02*
X1497Y1319D01*
X1531Y1319D02*
X1538Y1319D01*
X1491Y1318D02*
X1498Y1318D01*
X1531Y1318D02*
X1538Y1318D01*
X1491Y1317D02*
X1499Y1317D01*
X1530Y1317D02*
X1538Y1317D01*
X1492Y1316D02*
X1500Y1316D01*
X1529Y1316D02*
X1537Y1316D01*
X1492Y1315D02*
X1502Y1315D01*
X1527Y1315D02*
X1537Y1315D01*
X1493Y1314D02*
X1504Y1314D01*
X1525Y1314D02*
X1536Y1314D01*
X1493Y1313D02*
X1507Y1313D01*
X1522Y1313D02*
X1535Y1313D01*
X1494Y1312D02*
X1534Y1312D01*
X1495Y1311D02*
X1533Y1311D01*
X1496Y1310D02*
X1532Y1310D01*
X1498Y1309D02*
X1531Y1309D01*
X1499Y1308D02*
X1530Y1308D01*
X1501Y1307D02*
X1528Y1307D01*
X1504Y1306D02*
X1525Y1306D01*
X1508Y1305D02*
X1521Y1305D01*
X1492Y1295D02*
X1556Y1295D01*
X1492Y1294D02*
X1556Y1294D01*
X1492Y1293D02*
X1556Y1293D01*
X1492Y1292D02*
X1556Y1292D01*
X1492Y1291D02*
X1556Y1291D01*
X1492Y1290D02*
X1556Y1290D01*
X1492Y1289D02*
X1556Y1289D01*
X1497Y1288D02*
X1512Y1288D01*
X1516Y1288D02*
X1533Y1288D01*
X1496Y1287D02*
X1506Y1287D01*
X1523Y1287D02*
X1533Y1287D01*
X1494Y1286D02*
X1503Y1286D01*
X1525Y1286D02*
X1534Y1286D01*
X1493Y1285D02*
X1501Y1285D01*
X1527Y1285D02*
X1535Y1285D01*
X1493Y1284D02*
X1500Y1284D01*
X1529Y1284D02*
X1536Y1284D01*
X1492Y1283D02*
X1499Y1283D01*
X1530Y1283D02*
X1537Y1283D01*
X1491Y1282D02*
X1498Y1282D01*
X1531Y1282D02*
X1537Y1282D01*
X1491Y1281D02*
X1497Y1281D01*
X1531Y1281D02*
X1538Y1281D01*
X1490Y1280D02*
X1497Y1280D01*
X1532Y1280D02*
X1538Y1280D01*
X1490Y1279D02*
X1496Y1279D01*
X1532Y1279D02*
X1538Y1279D01*
X1490Y1278D02*
X1496Y1278D01*
X1533Y1278D02*
X1539Y1278D01*
X1490Y1277D02*
X1496Y1277D01*
X1533Y1277D02*
X1539Y1277D01*
X1490Y1276D02*
X1496Y1276D01*
X1533Y1276D02*
X1539Y1276D01*
X1490Y1275D02*
X1496Y1275D01*
X1533Y1275D02*
X1539Y1275D01*
X1490Y1274D02*
X1496Y1274D01*
X1533Y1274D02*
X1539Y1274D01*
X1490Y1273D02*
X1496Y1273D01*
X1533Y1273D02*
X1539Y1273D01*
X1490Y1272D02*
X1496Y1272D01*
X1533Y1272D02*
X1539Y1272D01*
X1490Y1271D02*
X1496Y1271D01*
X1533Y1271D02*
X1539Y1271D01*
X1490Y1270D02*
X1497Y1270D01*
X1532Y1270D02*
X1539Y1270D01*
X1490Y1269D02*
X1497Y1269D01*
X1532Y1269D02*
X1539Y1269D01*
X1490Y1268D02*
X1498Y1268D01*
X1531Y1268D02*
X1538Y1268D01*
X1491Y1267D02*
X1498Y1267D01*
X1530Y1267D02*
X1538Y1267D01*
X1491Y1266D02*
X1499Y1266D01*
X1529Y1266D02*
X1538Y1266D01*
X1491Y1265D02*
X1500Y1265D01*
X1528Y1265D02*
X1537Y1265D01*
X1492Y1264D02*
X1502Y1264D01*
X1527Y1264D02*
X1537Y1264D01*
X1493Y1263D02*
X1504Y1263D01*
X1525Y1263D02*
X1536Y1263D01*
X1493Y1262D02*
X1507Y1262D01*
X1522Y1262D02*
X1535Y1262D01*
X1494Y1261D02*
X1535Y1261D01*
X1495Y1260D02*
X1534Y1260D01*
X1496Y1259D02*
X1533Y1259D01*
X1498Y1258D02*
X1531Y1258D01*
X1499Y1257D02*
X1530Y1257D01*
X1501Y1256D02*
X1528Y1256D01*
X1504Y1255D02*
X1525Y1255D01*
X1508Y1254D02*
X1521Y1254D01*
X1513Y1246D02*
X1519Y1246D01*
X1513Y1245D02*
X1519Y1245D01*
X1513Y1244D02*
X1519Y1244D01*
X1513Y1243D02*
X1519Y1243D01*
X1513Y1242D02*
X1519Y1242D01*
X1513Y1241D02*
X1519Y1241D01*
X1513Y1240D02*
X1519Y1240D01*
X1513Y1239D02*
X1519Y1239D01*
X1513Y1238D02*
X1519Y1238D01*
X1513Y1237D02*
X1519Y1237D01*
X1513Y1236D02*
X1519Y1236D01*
X1513Y1235D02*
X1519Y1235D01*
X1513Y1234D02*
X1519Y1234D01*
X1513Y1233D02*
X1519Y1233D01*
X1513Y1232D02*
X1519Y1232D01*
X1513Y1231D02*
X1519Y1231D01*
X1513Y1230D02*
X1519Y1230D01*
X1513Y1229D02*
X1519Y1229D01*
X1513Y1228D02*
X1519Y1228D01*
X1513Y1227D02*
X1519Y1227D01*
X1513Y1226D02*
X1519Y1226D01*
X1492Y1214D02*
X1530Y1214D01*
X1492Y1213D02*
X1533Y1213D01*
X1492Y1212D02*
X1534Y1212D01*
X1492Y1211D02*
X1536Y1211D01*
X1492Y1210D02*
X1536Y1210D01*
X1492Y1209D02*
X1537Y1209D01*
X1492Y1208D02*
X1538Y1208D01*
X1492Y1207D02*
X1538Y1207D01*
X1529Y1206D02*
X1538Y1206D01*
X1531Y1205D02*
X1539Y1205D01*
X1532Y1204D02*
X1539Y1204D01*
X1532Y1203D02*
X1539Y1203D01*
X1533Y1202D02*
X1539Y1202D01*
X1533Y1201D02*
X1539Y1201D01*
X1533Y1200D02*
X1539Y1200D01*
X1534Y1199D02*
X1539Y1199D01*
X1534Y1198D02*
X1539Y1198D01*
X1533Y1197D02*
X1539Y1197D01*
X1533Y1196D02*
X1539Y1196D01*
X1533Y1195D02*
X1538Y1195D01*
X1533Y1194D02*
X1538Y1194D01*
X1532Y1193D02*
X1538Y1193D01*
X1532Y1192D02*
X1537Y1192D01*
X1531Y1191D02*
X1536Y1191D01*
X1530Y1190D02*
X1536Y1190D01*
X1528Y1189D02*
X1535Y1189D01*
X1526Y1188D02*
X1534Y1188D01*
X1492Y1187D02*
X1533Y1187D01*
X1492Y1186D02*
X1532Y1186D01*
X1492Y1185D02*
X1534Y1185D01*
X1492Y1184D02*
X1535Y1184D01*
X1492Y1183D02*
X1536Y1183D01*
X1492Y1182D02*
X1537Y1182D01*
X1492Y1181D02*
X1537Y1181D01*
X1492Y1180D02*
X1538Y1180D01*
X1528Y1179D02*
X1538Y1179D01*
X1530Y1178D02*
X1539Y1178D01*
X1531Y1177D02*
X1539Y1177D01*
X1532Y1176D02*
X1539Y1176D01*
X1533Y1175D02*
X1539Y1175D01*
X1533Y1174D02*
X1539Y1174D01*
X1533Y1173D02*
X1539Y1173D01*
X1534Y1172D02*
X1539Y1172D01*
X1534Y1171D02*
X1539Y1171D01*
X1534Y1170D02*
X1539Y1170D01*
X1533Y1169D02*
X1539Y1169D01*
X1533Y1168D02*
X1538Y1168D01*
X1533Y1167D02*
X1538Y1167D01*
X1532Y1166D02*
X1538Y1166D01*
X1532Y1165D02*
X1537Y1165D01*
X1531Y1164D02*
X1536Y1164D01*
X1530Y1163D02*
X1535Y1163D01*
X1529Y1162D02*
X1535Y1162D01*
X1527Y1161D02*
X1533Y1161D01*
X1524Y1160D02*
X1532Y1160D01*
X1492Y1159D02*
X1537Y1159D01*
X1492Y1158D02*
X1538Y1158D01*
X1492Y1157D02*
X1538Y1157D01*
X1492Y1156D02*
X1538Y1156D01*
X1492Y1155D02*
X1538Y1155D01*
X1492Y1154D02*
X1538Y1154D01*
X1492Y1153D02*
X1538Y1153D01*
X1491Y1139D02*
X1537Y1139D01*
X1548Y1139D02*
X1556Y1139D01*
X1491Y1138D02*
X1537Y1138D01*
X1548Y1138D02*
X1556Y1138D01*
X1491Y1137D02*
X1537Y1137D01*
X1548Y1137D02*
X1556Y1137D01*
X1491Y1136D02*
X1537Y1136D01*
X1548Y1136D02*
X1556Y1136D01*
X1491Y1135D02*
X1537Y1135D01*
X1548Y1135D02*
X1556Y1135D01*
X1491Y1134D02*
X1537Y1134D01*
X1548Y1134D02*
X1556Y1134D01*
X1491Y1133D02*
X1537Y1133D01*
X1548Y1133D02*
X1556Y1133D01*
X1491Y1132D02*
X1537Y1132D01*
X1548Y1132D02*
X1556Y1132D01*
X1490Y1123D02*
X1495Y1123D01*
X1533Y1123D02*
X1538Y1123D01*
X1490Y1122D02*
X1495Y1122D01*
X1533Y1122D02*
X1538Y1122D01*
X1490Y1121D02*
X1495Y1121D01*
X1533Y1121D02*
X1538Y1121D01*
X1490Y1120D02*
X1495Y1120D01*
X1533Y1120D02*
X1538Y1120D01*
X1490Y1119D02*
X1495Y1119D01*
X1533Y1119D02*
X1538Y1119D01*
X1490Y1118D02*
X1495Y1118D01*
X1533Y1118D02*
X1538Y1118D01*
X1490Y1117D02*
X1496Y1117D01*
X1533Y1117D02*
X1538Y1117D01*
X1490Y1116D02*
X1497Y1116D01*
X1532Y1116D02*
X1538Y1116D01*
X1490Y1115D02*
X1551Y1115D01*
X1490Y1114D02*
X1551Y1114D01*
X1490Y1113D02*
X1551Y1113D01*
X1491Y1112D02*
X1551Y1112D01*
X1491Y1111D02*
X1551Y1111D01*
X1492Y1110D02*
X1551Y1110D01*
X1494Y1109D02*
X1551Y1109D01*
X1533Y1108D02*
X1538Y1108D01*
X1533Y1107D02*
X1538Y1107D01*
X1533Y1106D02*
X1538Y1106D01*
X1533Y1105D02*
X1538Y1105D01*
X1533Y1104D02*
X1538Y1104D01*
X1533Y1103D02*
X1538Y1103D01*
X1533Y1102D02*
X1537Y1102D01*
X1435Y1059D02*
X1598Y1059D01*
X1433Y1058D02*
X1601Y1058D01*
X1431Y1057D02*
X1603Y1057D01*
X1429Y1056D02*
X1604Y1056D01*
X1428Y1055D02*
X1605Y1055D01*
X1427Y1054D02*
X1607Y1054D01*
X1426Y1053D02*
X1608Y1053D01*
X1425Y1052D02*
X1609Y1052D01*
X1424Y1051D02*
X1609Y1051D01*
X1423Y1050D02*
X1610Y1050D01*
X1423Y1049D02*
X1611Y1049D01*
X1422Y1048D02*
X1612Y1048D01*
X1421Y1047D02*
X1612Y1047D01*
X1421Y1046D02*
X1613Y1046D01*
X1420Y1045D02*
X1613Y1045D01*
X1420Y1044D02*
X1613Y1044D01*
X1420Y1043D02*
X1614Y1043D01*
X1419Y1042D02*
X1614Y1042D01*
X1419Y1017D02*
X1441Y1017D01*
X1473Y1017D02*
X1507Y1017D01*
X1540Y1017D02*
X1615Y1017D01*
X1419Y1016D02*
X1440Y1016D01*
X1468Y1016D02*
X1513Y1016D01*
X1541Y1016D02*
X1615Y1016D01*
X1419Y1015D02*
X1438Y1015D01*
X1465Y1015D02*
X1516Y1015D01*
X1542Y1015D02*
X1615Y1015D01*
X1419Y1014D02*
X1437Y1014D01*
X1462Y1014D02*
X1518Y1014D01*
X1544Y1014D02*
X1615Y1014D01*
X1419Y1013D02*
X1436Y1013D01*
X1460Y1013D02*
X1520Y1013D01*
X1545Y1013D02*
X1615Y1013D01*
X1419Y1012D02*
X1435Y1012D01*
X1458Y1012D02*
X1522Y1012D01*
X1546Y1012D02*
X1615Y1012D01*
X1419Y1011D02*
X1434Y1011D01*
X1456Y1011D02*
X1524Y1011D01*
X1547Y1011D02*
X1615Y1011D01*
X1419Y1010D02*
X1433Y1010D01*
X1455Y1010D02*
X1525Y1010D01*
X1548Y1010D02*
X1615Y1010D01*
X1419Y1009D02*
X1432Y1009D01*
X1454Y1009D02*
X1527Y1009D01*
X1549Y1009D02*
X1615Y1009D01*
X1419Y1008D02*
X1431Y1008D01*
X1452Y1008D02*
X1528Y1008D01*
X1550Y1008D02*
X1615Y1008D01*
X1419Y1007D02*
X1430Y1007D01*
X1451Y1007D02*
X1529Y1007D01*
X1551Y1007D02*
X1615Y1007D01*
X1419Y1006D02*
X1429Y1006D01*
X1450Y1006D02*
X1530Y1006D01*
X1551Y1006D02*
X1615Y1006D01*
X1419Y1005D02*
X1428Y1005D01*
X1449Y1005D02*
X1531Y1005D01*
X1552Y1005D02*
X1615Y1005D01*
X1419Y1004D02*
X1427Y1004D01*
X1448Y1004D02*
X1532Y1004D01*
X1553Y1004D02*
X1615Y1004D01*
X1419Y1003D02*
X1427Y1003D01*
X1447Y1003D02*
X1533Y1003D01*
X1553Y1003D02*
X1615Y1003D01*
X1419Y1002D02*
X1426Y1002D01*
X1447Y1002D02*
X1533Y1002D01*
X1554Y1002D02*
X1615Y1002D01*
X1419Y1001D02*
X1425Y1001D01*
X1446Y1001D02*
X1534Y1001D01*
X1554Y1001D02*
X1615Y1001D01*
X1419Y1000D02*
X1425Y1000D01*
X1445Y1000D02*
X1535Y1000D01*
X1555Y1000D02*
X1615Y1000D01*
X1419Y999D02*
X1424Y999D01*
X1445Y999D02*
X1535Y999D01*
X1555Y999D02*
X1615Y999D01*
X1419Y998D02*
X1424Y998D01*
X1444Y998D02*
X1536Y998D01*
X1556Y998D02*
X1615Y998D01*
X1419Y997D02*
X1423Y997D01*
X1444Y997D02*
X1536Y997D01*
X1556Y997D02*
X1615Y997D01*
X1419Y996D02*
X1423Y996D01*
X1443Y996D02*
X1537Y996D01*
X1557Y996D02*
X1615Y996D01*
X1419Y995D02*
X1422Y995D01*
X1443Y995D02*
X1537Y995D01*
X1557Y995D02*
X1615Y995D01*
X1419Y994D02*
X1422Y994D01*
X1442Y994D02*
X1538Y994D01*
X1557Y994D02*
X1615Y994D01*
X1419Y993D02*
X1421Y993D01*
X1442Y993D02*
X1538Y993D01*
X1558Y993D02*
X1615Y993D01*
X1419Y992D02*
X1421Y992D01*
X1441Y992D02*
X1538Y992D01*
X1558Y992D02*
X1615Y992D01*
X1419Y991D02*
X1421Y991D01*
X1441Y991D02*
X1539Y991D01*
X1558Y991D02*
X1615Y991D01*
X1419Y990D02*
X1420Y990D01*
X1441Y990D02*
X1539Y990D01*
X1559Y990D02*
X1615Y990D01*
X1419Y989D02*
X1420Y989D01*
X1441Y989D02*
X1539Y989D01*
X1559Y989D02*
X1615Y989D01*
X1419Y988D02*
X1420Y988D01*
X1440Y988D02*
X1539Y988D01*
X1559Y988D02*
X1615Y988D01*
X1419Y987D02*
X1419Y987D01*
X1440Y987D02*
X1540Y987D01*
X1559Y987D02*
X1615Y987D01*
X1419Y986D02*
X1419Y986D01*
X1440Y986D02*
X1540Y986D01*
X1559Y986D02*
X1615Y986D01*
X1419Y985D02*
X1419Y985D01*
X1440Y985D02*
X1540Y985D01*
X1559Y985D02*
X1615Y985D01*
X1440Y984D02*
X1540Y984D01*
X1560Y984D02*
X1615Y984D01*
X1440Y983D02*
X1540Y983D01*
X1560Y983D02*
X1615Y983D01*
X1440Y982D02*
X1540Y982D01*
X1560Y982D02*
X1615Y982D01*
X1440Y981D02*
X1540Y981D01*
X1560Y981D02*
X1615Y981D01*
X1440Y980D02*
X1540Y980D01*
X1560Y980D02*
X1615Y980D01*
X1440Y979D02*
X1540Y979D01*
X1560Y979D02*
X1615Y979D01*
X1440Y978D02*
X1540Y978D01*
X1560Y978D02*
X1615Y978D01*
X1440Y977D02*
X1540Y977D01*
X1560Y977D02*
X1615Y977D01*
X1440Y976D02*
X1540Y976D01*
X1560Y976D02*
X1615Y976D01*
X1440Y975D02*
X1539Y975D01*
X1560Y975D02*
X1615Y975D01*
X1440Y974D02*
X1539Y974D01*
X1560Y974D02*
X1615Y974D01*
X1440Y973D02*
X1539Y973D01*
X1560Y973D02*
X1615Y973D01*
X1441Y972D02*
X1539Y972D01*
X1560Y972D02*
X1615Y972D01*
X1441Y971D02*
X1539Y971D01*
X1560Y971D02*
X1615Y971D01*
X1441Y970D02*
X1538Y970D01*
X1560Y970D02*
X1615Y970D01*
X1441Y969D02*
X1538Y969D01*
X1560Y969D02*
X1615Y969D01*
X1442Y968D02*
X1538Y968D01*
X1559Y968D02*
X1615Y968D01*
X1442Y967D02*
X1537Y967D01*
X1559Y967D02*
X1615Y967D01*
X1442Y966D02*
X1537Y966D01*
X1559Y966D02*
X1615Y966D01*
X1443Y965D02*
X1536Y965D01*
X1559Y965D02*
X1615Y965D01*
X1443Y964D02*
X1536Y964D01*
X1559Y964D02*
X1615Y964D01*
X1444Y963D02*
X1535Y963D01*
X1558Y963D02*
X1615Y963D01*
X1419Y962D02*
X1419Y962D01*
X1444Y962D02*
X1535Y962D01*
X1558Y962D02*
X1615Y962D01*
X1419Y961D02*
X1419Y961D01*
X1445Y961D02*
X1534Y961D01*
X1558Y961D02*
X1615Y961D01*
X1419Y960D02*
X1419Y960D01*
X1445Y960D02*
X1534Y960D01*
X1558Y960D02*
X1615Y960D01*
X1419Y959D02*
X1420Y959D01*
X1446Y959D02*
X1533Y959D01*
X1557Y959D02*
X1615Y959D01*
X1419Y958D02*
X1420Y958D01*
X1447Y958D02*
X1532Y958D01*
X1557Y958D02*
X1615Y958D01*
X1419Y957D02*
X1420Y957D01*
X1448Y957D02*
X1531Y957D01*
X1557Y957D02*
X1615Y957D01*
X1419Y956D02*
X1421Y956D01*
X1449Y956D02*
X1530Y956D01*
X1556Y956D02*
X1615Y956D01*
X1419Y955D02*
X1421Y955D01*
X1450Y955D02*
X1529Y955D01*
X1556Y955D02*
X1615Y955D01*
X1419Y954D02*
X1421Y954D01*
X1450Y954D02*
X1528Y954D01*
X1555Y954D02*
X1615Y954D01*
X1419Y953D02*
X1422Y953D01*
X1452Y953D02*
X1527Y953D01*
X1555Y953D02*
X1615Y953D01*
X1419Y952D02*
X1422Y952D01*
X1453Y952D02*
X1526Y952D01*
X1555Y952D02*
X1615Y952D01*
X1419Y951D02*
X1423Y951D01*
X1454Y951D02*
X1524Y951D01*
X1554Y951D02*
X1615Y951D01*
X1419Y950D02*
X1423Y950D01*
X1456Y950D02*
X1523Y950D01*
X1553Y950D02*
X1615Y950D01*
X1419Y949D02*
X1424Y949D01*
X1457Y949D02*
X1521Y949D01*
X1553Y949D02*
X1615Y949D01*
X1419Y948D02*
X1424Y948D01*
X1459Y948D02*
X1520Y948D01*
X1552Y948D02*
X1615Y948D01*
X1419Y947D02*
X1425Y947D01*
X1461Y947D02*
X1518Y947D01*
X1552Y947D02*
X1615Y947D01*
X1419Y946D02*
X1426Y946D01*
X1463Y946D02*
X1515Y946D01*
X1551Y946D02*
X1615Y946D01*
X1419Y945D02*
X1426Y945D01*
X1465Y945D02*
X1513Y945D01*
X1550Y945D02*
X1615Y945D01*
X1419Y944D02*
X1427Y944D01*
X1468Y944D02*
X1510Y944D01*
X1550Y944D02*
X1615Y944D01*
X1419Y943D02*
X1428Y943D01*
X1472Y943D02*
X1506Y943D01*
X1549Y943D02*
X1615Y943D01*
X1419Y942D02*
X1428Y942D01*
X1476Y942D02*
X1501Y942D01*
X1548Y942D02*
X1615Y942D01*
X1419Y941D02*
X1429Y941D01*
X1486Y941D02*
X1491Y941D01*
X1548Y941D02*
X1615Y941D01*
X1419Y940D02*
X1430Y940D01*
X1547Y940D02*
X1615Y940D01*
X1419Y939D02*
X1431Y939D01*
X1546Y939D02*
X1615Y939D01*
X1419Y938D02*
X1432Y938D01*
X1545Y938D02*
X1615Y938D01*
X1419Y937D02*
X1433Y937D01*
X1544Y937D02*
X1615Y937D01*
X1419Y936D02*
X1434Y936D01*
X1560Y936D02*
X1615Y936D01*
X1419Y935D02*
X1435Y935D01*
X1560Y935D02*
X1615Y935D01*
X1419Y934D02*
X1436Y934D01*
X1541Y934D02*
X1541Y934D01*
X1560Y934D02*
X1615Y934D01*
X1420Y933D02*
X1436Y933D01*
X1540Y933D02*
X1541Y933D01*
X1560Y933D02*
X1615Y933D01*
X1538Y932D02*
X1541Y932D01*
X1560Y932D02*
X1615Y932D01*
X1537Y931D02*
X1541Y931D01*
X1560Y931D02*
X1615Y931D01*
X1440Y930D02*
X1441Y930D01*
X1536Y930D02*
X1541Y930D01*
X1560Y930D02*
X1615Y930D01*
X1440Y929D02*
X1442Y929D01*
X1534Y929D02*
X1541Y929D01*
X1560Y929D02*
X1615Y929D01*
X1440Y928D02*
X1444Y928D01*
X1533Y928D02*
X1541Y928D01*
X1560Y928D02*
X1615Y928D01*
X1440Y927D02*
X1445Y927D01*
X1531Y927D02*
X1541Y927D01*
X1560Y927D02*
X1615Y927D01*
X1440Y926D02*
X1447Y926D01*
X1529Y926D02*
X1541Y926D01*
X1560Y926D02*
X1615Y926D01*
X1440Y925D02*
X1449Y925D01*
X1528Y925D02*
X1541Y925D01*
X1560Y925D02*
X1615Y925D01*
X1440Y924D02*
X1451Y924D01*
X1526Y924D02*
X1541Y924D01*
X1560Y924D02*
X1615Y924D01*
X1440Y923D02*
X1453Y923D01*
X1523Y923D02*
X1541Y923D01*
X1560Y923D02*
X1615Y923D01*
X1440Y922D02*
X1455Y922D01*
X1521Y922D02*
X1541Y922D01*
X1560Y922D02*
X1615Y922D01*
X1440Y921D02*
X1458Y921D01*
X1518Y921D02*
X1541Y921D01*
X1560Y921D02*
X1615Y921D01*
X1440Y920D02*
X1461Y920D01*
X1515Y920D02*
X1541Y920D01*
X1560Y920D02*
X1615Y920D01*
X1440Y919D02*
X1465Y919D01*
X1512Y919D02*
X1541Y919D01*
X1560Y919D02*
X1615Y919D01*
X1440Y918D02*
X1469Y918D01*
X1507Y918D02*
X1541Y918D01*
X1560Y918D02*
X1615Y918D01*
X1440Y917D02*
X1476Y917D01*
X1500Y917D02*
X1541Y917D01*
X1560Y917D02*
X1615Y917D01*
X1440Y916D02*
X1541Y916D01*
X1560Y916D02*
X1615Y916D01*
X1440Y915D02*
X1541Y915D01*
X1560Y915D02*
X1615Y915D01*
X1440Y914D02*
X1541Y914D01*
X1560Y914D02*
X1615Y914D01*
X1440Y913D02*
X1541Y913D01*
X1560Y913D02*
X1615Y913D01*
X1440Y912D02*
X1541Y912D01*
X1560Y912D02*
X1615Y912D01*
X1441Y911D02*
X1541Y911D01*
X1560Y911D02*
X1615Y911D01*
X1441Y910D02*
X1541Y910D01*
X1560Y910D02*
X1615Y910D01*
X1441Y909D02*
X1541Y909D01*
X1560Y909D02*
X1615Y909D01*
X1442Y908D02*
X1541Y908D01*
X1560Y908D02*
X1615Y908D01*
X1442Y907D02*
X1541Y907D01*
X1560Y907D02*
X1615Y907D01*
X1443Y906D02*
X1541Y906D01*
X1560Y906D02*
X1615Y906D01*
X1443Y905D02*
X1541Y905D01*
X1560Y905D02*
X1615Y905D01*
X1444Y904D02*
X1541Y904D01*
X1560Y904D02*
X1615Y904D01*
X1445Y903D02*
X1541Y903D01*
X1560Y903D02*
X1615Y903D01*
X1419Y902D02*
X1419Y902D01*
X1447Y902D02*
X1541Y902D01*
X1560Y902D02*
X1615Y902D01*
X1419Y901D02*
X1419Y901D01*
X1448Y901D02*
X1541Y901D01*
X1560Y901D02*
X1615Y901D01*
X1419Y900D02*
X1419Y900D01*
X1450Y900D02*
X1541Y900D01*
X1560Y900D02*
X1615Y900D01*
X1419Y899D02*
X1420Y899D01*
X1453Y899D02*
X1541Y899D01*
X1560Y899D02*
X1615Y899D01*
X1419Y898D02*
X1420Y898D01*
X1459Y898D02*
X1541Y898D01*
X1560Y898D02*
X1615Y898D01*
X1419Y897D02*
X1420Y897D01*
X1592Y897D02*
X1615Y897D01*
X1419Y896D02*
X1420Y896D01*
X1592Y896D02*
X1615Y896D01*
X1419Y895D02*
X1421Y895D01*
X1592Y895D02*
X1615Y895D01*
X1419Y894D02*
X1421Y894D01*
X1591Y894D02*
X1615Y894D01*
X1419Y893D02*
X1422Y893D01*
X1591Y893D02*
X1615Y893D01*
X1419Y892D02*
X1422Y892D01*
X1591Y892D02*
X1615Y892D01*
X1419Y891D02*
X1423Y891D01*
X1590Y891D02*
X1615Y891D01*
X1419Y890D02*
X1424Y890D01*
X1590Y890D02*
X1615Y890D01*
X1419Y889D02*
X1424Y889D01*
X1590Y889D02*
X1615Y889D01*
X1419Y888D02*
X1425Y888D01*
X1590Y888D02*
X1615Y888D01*
X1419Y887D02*
X1426Y887D01*
X1589Y887D02*
X1615Y887D01*
X1419Y886D02*
X1427Y886D01*
X1589Y886D02*
X1615Y886D01*
X1419Y885D02*
X1428Y885D01*
X1589Y885D02*
X1615Y885D01*
X1419Y884D02*
X1429Y884D01*
X1588Y884D02*
X1615Y884D01*
X1419Y883D02*
X1430Y883D01*
X1588Y883D02*
X1615Y883D01*
X1419Y882D02*
X1431Y882D01*
X1588Y882D02*
X1615Y882D01*
X1419Y881D02*
X1432Y881D01*
X1587Y881D02*
X1615Y881D01*
X1419Y880D02*
X1434Y880D01*
X1587Y880D02*
X1615Y880D01*
X1419Y879D02*
X1435Y879D01*
X1587Y879D02*
X1615Y879D01*
X1419Y878D02*
X1438Y878D01*
X1586Y878D02*
X1615Y878D01*
X1419Y877D02*
X1440Y877D01*
X1586Y877D02*
X1615Y877D01*
X1419Y876D02*
X1443Y876D01*
X1586Y876D02*
X1615Y876D01*
X1419Y875D02*
X1448Y875D01*
X1585Y875D02*
X1615Y875D01*
X1419Y874D02*
X1457Y874D01*
X1585Y874D02*
X1615Y874D01*
X1419Y873D02*
X1541Y873D01*
X1560Y873D02*
X1614Y873D01*
X1419Y872D02*
X1541Y872D01*
X1560Y872D02*
X1614Y872D01*
X1420Y871D02*
X1541Y871D01*
X1560Y871D02*
X1614Y871D01*
X1420Y870D02*
X1541Y870D01*
X1560Y870D02*
X1613Y870D01*
X1420Y869D02*
X1541Y869D01*
X1560Y869D02*
X1613Y869D01*
X1421Y868D02*
X1541Y868D01*
X1560Y868D02*
X1613Y868D01*
X1421Y867D02*
X1541Y867D01*
X1560Y867D02*
X1612Y867D01*
X1422Y866D02*
X1541Y866D01*
X1560Y866D02*
X1611Y866D01*
X1423Y865D02*
X1541Y865D01*
X1560Y865D02*
X1611Y865D01*
X1423Y864D02*
X1541Y864D01*
X1560Y864D02*
X1610Y864D01*
X1424Y863D02*
X1541Y863D01*
X1560Y863D02*
X1609Y863D01*
X1425Y862D02*
X1541Y862D01*
X1560Y862D02*
X1609Y862D01*
X1426Y861D02*
X1541Y861D01*
X1560Y861D02*
X1608Y861D01*
X1427Y860D02*
X1541Y860D01*
X1560Y860D02*
X1607Y860D01*
X1428Y859D02*
X1541Y859D01*
X1560Y859D02*
X1605Y859D01*
X1429Y858D02*
X1541Y858D01*
X1560Y858D02*
X1604Y858D01*
X1431Y857D02*
X1541Y857D01*
X1560Y857D02*
X1602Y857D01*
X1433Y856D02*
X1541Y856D01*
X1560Y856D02*
X1601Y856D01*
X1435Y855D02*
X1541Y855D01*
X1560Y855D02*
X1598Y855D01*
X1439Y854D02*
X1541Y854D01*
X1560Y854D02*
X1595Y854D01*
D02*
G04 End of Silk0*
M02*